<?xml version="1.0" encoding="UTF-8"?>
<svg width="512px" height="148px" viewBox="0 0 512 148" version="1.1" xmlns="http://www.w3.org/2000/svg" xmlns:xlink="http://www.w3.org/1999/xlink">
    <title>tshirt_black</title>
    <g id="makers" stroke="none" stroke-width="1" fill="none" fill-rule="evenodd">
        <g id="story" transform="translate(-234.000000, -1342.000000)" fill="#FFFFFF">
            <g id="tshirt_black" transform="translate(234.000000, 1342.000000)">
                <path d="M512,0 L512,147.875776 L434.086957,147.875776 L434.086957,0 L512,0 Z M169.818634,47.8608696 C173.528797,47.8608696 177.212404,48.1258773 180.869565,48.6559006 C184.526726,49.185924 187.839323,50.2724556 190.807453,51.915528 C193.775584,53.5586003 196.160654,55.8641674 197.962733,58.8322981 C199.764812,61.8004289 200.665839,65.6695414 200.665839,70.4397516 L200.665839,112.735404 C200.665839,115.915544 200.851344,118.247612 201.22236,119.731677 C201.593377,121.215742 202.838913,121.957764 204.959006,121.957764 C206.125058,121.957764 207.503098,121.692756 209.093168,121.162733 L209.093168,131.657143 C206.761065,133.035204 203.527971,133.724224 199.393789,133.724224 C195.895635,133.724224 193.113054,132.743695 191.045963,130.782609 C188.978872,128.821522 187.945342,125.614929 187.945342,121.162733 C184.235178,125.614929 179.915553,128.821522 174.986335,130.782609 C170.057118,132.743695 164.730463,133.724224 159.006211,133.724224 C155.296048,133.724224 151.771445,133.300211 148.432298,132.452174 C145.093151,131.604137 142.204567,130.279098 139.76646,128.477019 C137.328352,126.674939 135.393796,124.316371 133.962733,121.401242 C132.53167,118.486114 131.816149,114.961511 131.816149,110.827329 C131.816149,106.163124 132.611172,102.347013 134.201242,99.378882 C135.791312,96.4107512 137.884873,93.9991811 140.481988,92.1440994 C143.079102,90.2890176 146.047188,88.8844768 149.386335,87.9304348 C152.725483,86.9763927 156.144082,86.1813696 159.642236,85.5453416 C163.3524,84.8033089 166.877002,84.2467927 170.216149,83.8757764 C173.555296,83.50476 176.496882,82.9747446 179.040994,82.2857143 C181.585106,81.5966839 183.599164,80.5896547 185.08323,79.2645963 C186.567295,77.9395379 187.309317,76.0049817 187.309317,73.4608696 C187.309317,70.4927388 186.752801,68.1076695 185.639752,66.3055901 C184.526703,64.5035107 183.095661,63.1254706 181.346584,62.1714286 C179.597507,61.2173865 177.63645,60.581368 175.463354,60.263354 C173.290258,59.94534 171.143696,59.7863354 169.023602,59.7863354 C163.29935,59.7863354 158.529212,60.872867 154.713043,63.0459627 C150.896875,65.2190585 148.829815,69.3266779 148.511801,75.3689441 L134.996273,75.3689441 C135.208283,70.2807199 136.268313,65.9875951 138.176398,62.489441 C140.084482,58.9912869 142.628556,56.1557044 145.808696,53.9826087 C148.988836,51.8095129 152.619441,50.2459675 156.700621,49.2919255 C160.781801,48.3378834 165.154428,47.8608696 169.818634,47.8608696 Z M338.365217,47.8608696 C345.67954,47.8608696 351.748216,49.3714135 356.571429,52.3925466 C361.394641,55.4136797 365.263754,59.2562914 368.178882,63.9204969 C371.09401,68.5847024 373.108069,73.6728503 374.221118,79.1850932 C375.334167,84.697336 375.78468,89.9444885 375.572671,94.9267081 L314.037267,94.9267081 C313.931262,98.5308669 314.355275,101.949466 315.309317,105.182609 C316.263359,108.415751 317.800403,111.277834 319.920497,113.768944 C322.04059,116.260054 324.743669,118.247612 328.029814,119.731677 C331.315958,121.215742 335.185071,121.957764 339.637267,121.957764 C345.361519,121.957764 350.052156,120.632725 353.709317,117.982609 C357.366478,115.332492 359.778048,111.304375 360.944099,105.898137 L374.300621,105.898137 C372.498542,115.120543 368.523426,122.063745 362.375155,126.72795 C356.226884,131.392156 348.488659,133.724224 339.160248,133.724224 C332.587959,133.724224 326.890293,132.664193 322.067081,130.544099 C317.243868,128.424006 313.18925,125.45592 309.903106,121.639752 C306.616961,117.823583 304.152389,113.265451 302.509317,107.965217 C300.866244,102.664984 299.938717,96.887816 299.726708,90.6335404 C299.726708,84.3792648 300.680736,78.6550984 302.58882,73.4608696 C304.496904,68.2666407 307.173482,63.7615098 310.618634,59.9453416 C314.063785,56.1291735 318.144904,53.1610872 322.862112,51.0409938 C327.57932,48.9209004 332.74697,47.8608696 338.365217,47.8608696 Z M469.704348,47.8608696 C466.100189,47.8608696 462.469584,48.3113827 458.812422,49.2124224 C455.155261,50.1134621 451.869166,51.4915021 448.954037,53.3465839 C446.038909,55.2016656 443.65384,57.6132357 441.798758,60.5813665 C439.943676,63.5494972 439.016149,67.1006004 439.016149,71.2347826 C439.016149,76.5350161 440.341188,80.6691363 442.991304,83.6372671 C445.641421,86.6053979 448.954017,88.9109649 452.929193,90.5540373 C456.904368,92.1971097 461.223993,93.4691466 465.888199,94.3701863 C470.552404,95.271226 474.87203,96.2782553 478.847205,97.3913043 C482.82238,98.5043534 486.134976,99.9618958 488.785093,101.763975 C491.43521,103.566055 492.760248,106.216132 492.760248,109.714286 C492.760248,112.258398 492.12423,114.351959 490.852174,115.995031 C489.580118,117.638103 487.963571,118.88364 486.002484,119.731677 C484.041398,120.579714 481.894836,121.162731 479.562733,121.480745 C477.23063,121.798759 475.004565,121.957764 472.884472,121.957764 C470.128351,121.957764 467.451773,121.692756 464.854658,121.162733 C462.257544,120.63271 459.925476,119.758184 457.858385,118.53913 C455.791294,117.320077 454.121745,115.677029 452.849689,113.609938 C451.577633,111.542847 450.888613,109.025274 450.782609,106.057143 L450.782609,106.057143 L437.267081,106.057143 C437.47909,111.145367 438.539121,115.464993 440.447205,119.016149 C442.355289,122.567306 444.899363,125.429389 448.079503,127.602484 C451.259643,129.77558 454.91675,131.339126 459.050932,132.293168 C463.185114,133.24721 467.53124,133.724224 472.089441,133.724224 C476.223623,133.724224 480.384244,133.326712 484.571429,132.531677 C488.758613,131.736642 492.521722,130.332101 495.86087,128.318012 C499.200017,126.303924 501.903095,123.653847 503.970186,120.367702 C506.037277,117.081557 507.070807,112.947437 507.070807,107.965217 C507.070807,104.043045 506.302285,100.756949 504.765217,98.1068323 C503.22815,95.4567155 501.214091,93.2571516 498.722981,91.5080745 C496.231872,89.7589975 493.369788,88.3544566 490.136646,87.2944099 C486.903504,86.2343632 483.590907,85.333337 480.198758,84.5913043 C477.018618,83.8492717 473.838525,83.1337509 470.658385,82.4447205 C467.478245,81.7556901 464.616162,80.9076655 462.07205,79.9006211 C459.527938,78.8935767 457.434377,77.6215398 455.791304,76.084472 C454.148232,74.5474043 453.326708,72.6128481 453.326708,70.2807453 C453.326708,68.1606519 453.856723,66.4381019 454.91677,65.1130435 C455.976817,63.7879851 457.354857,62.7279543 459.050932,61.9329193 C460.747006,61.1378842 462.628561,60.581368 464.695652,60.263354 C466.762743,59.94534 468.803303,59.7863354 470.817391,59.7863354 C473.043489,59.7863354 475.243053,60.0248423 477.416149,60.5018634 C479.589245,60.9788844 481.576803,61.7474067 483.378882,62.8074534 C485.180961,63.8675001 486.665005,65.2720409 487.831056,67.021118 C488.997107,68.7701951 489.686127,70.969759 489.898137,73.6198758 L489.898137,73.6198758 L503.413665,73.6198758 C503.095651,68.6376562 502.03562,64.4770353 500.23354,61.1378882 C498.431461,57.7987411 496.019891,55.148664 492.998758,53.1875776 C489.977625,51.2264912 486.506024,49.8484512 482.583851,49.0534161 C478.661678,48.2583811 474.368553,47.8608696 469.704348,47.8608696 Z M88.5664596,47.8608696 C92.7006418,47.8608696 96.4372504,48.3113827 99.7763975,49.2124224 C103.115545,50.1134621 105.977628,51.5180029 108.362733,53.426087 C110.747838,55.334171 112.602892,57.7987427 113.92795,60.8198758 C115.253009,63.8410089 115.915528,67.4716144 115.915528,71.7118012 L115.915528,131.975155 L102.4,131.975155 L102.4,78.0720497 C102.4,75.5279376 102.187994,73.1428683 101.763975,70.9167702 C101.339956,68.6906721 100.544933,66.7561159 99.378882,65.1130435 C98.2128306,63.4699711 96.5962836,62.1714333 94.5291925,61.2173913 C92.4621015,60.2633493 89.7855237,59.7863354 86.4993789,59.7863354 C79.8210846,59.7863354 74.5739321,61.6943909 70.757764,65.510559 C66.9415958,69.3267272 65.0335404,74.414875 65.0335404,80.7751553 L65.0335404,131.975155 L51.5180124,131.975155 L51.5180124,78.0720497 C51.5180124,75.4219329 51.2795055,72.9838621 50.8024845,70.757764 C50.3254635,68.5316659 49.5039396,66.5971097 48.3378882,64.9540373 C47.1718368,63.3109649 45.6082914,62.0389279 43.647205,61.1378882 C41.6861186,60.2368485 39.1685454,59.7863354 36.0944099,59.7863354 C32.1722371,59.7863354 28.8066393,60.5813585 25.9975155,62.1714286 C23.1883918,63.7614986 20.9093255,65.6695541 19.1602484,67.8956522 C17.4111714,70.1217503 16.1391344,72.4273173 15.3440994,74.8124224 C14.5490643,77.1975275 14.1515528,79.1850852 14.1515528,80.7751553 L14.1515528,131.975155 L0.636024845,131.975155 L0.636024845,49.7689441 L13.3565217,49.7689441 L13.3565217,61.8534161 L13.6745342,61.8534161 C19.8228051,52.5250051 28.6740623,47.8608696 40.2285714,47.8608696 C45.3167956,47.8608696 49.9279296,48.9209004 54.0621118,51.0409938 C58.196294,53.1610872 61.1113787,56.765192 62.8074534,61.8534161 C65.5635749,57.40122 69.1941804,53.9561199 73.6993789,51.5180124 C78.2045774,49.079905 83.1602214,47.8608696 88.5664596,47.8608696 Z M235.965217,18.4447205 L235.965217,85.7043478 L273.490683,49.7689441 L291.617391,49.7689441 L259.021118,79.6621118 L294.002484,131.975155 L276.829814,131.975155 L248.685714,89.0434783 L235.965217,100.809938 L235.965217,131.975155 L222.449689,131.975155 L222.449689,18.4447205 L235.965217,18.4447205 Z M432.337888,47.8608696 L432.337888,62.1714286 C426.93165,62.1714286 422.320516,62.9134501 418.504348,64.3975155 C414.68818,65.8815809 411.61409,68.0546441 409.281988,70.9167702 C406.949885,73.7788963 405.253836,77.2504972 404.193789,81.331677 C403.133742,85.4128568 402.603727,90.1034932 402.603727,95.4037267 L402.603727,131.975155 L389.088199,131.975155 L389.088199,49.7689441 L401.808696,49.7689441 L401.808696,67.1006211 L402.126708,67.1006211 C405.412853,60.4223269 409.44097,55.4931836 414.21118,52.3130435 C418.98139,49.1329034 425.023566,47.6488602 432.337888,47.8608696 Z M187.150311,89.5204969 C185.454236,90.7925529 183.228171,91.7200799 180.47205,92.3031056 C177.715928,92.8861313 174.827344,93.3631451 171.806211,93.7341615 C168.785078,94.1051778 165.737489,94.5291902 162.663354,95.0062112 C159.589219,95.4832322 156.833138,96.2517545 154.395031,97.3118012 C151.956924,98.371848 149.969366,99.8823919 148.432298,101.843478 C146.89523,103.804565 146.126708,106.481142 146.126708,109.873292 C146.126708,112.09939 146.577221,113.980945 147.478261,115.518012 C148.379301,117.05508 149.545334,118.300616 150.976398,119.254658 C152.407461,120.2087 154.077009,120.89772 155.985093,121.321739 C157.893177,121.745758 159.907236,121.957764 162.027329,121.957764 C166.479525,121.957764 170.295636,121.348246 173.475776,120.129193 C176.655917,118.910139 179.252992,117.373094 181.267081,115.518012 C183.281169,113.662931 184.765213,111.648872 185.719255,109.475776 C186.673297,107.302681 187.150311,105.262121 187.150311,103.354037 L187.150311,89.5204969 Z M337.570186,59.7863354 C334.072032,59.7863354 330.918441,60.3958531 328.109317,61.6149068 C325.300193,62.8339605 322.888623,64.5035091 320.874534,66.6236025 C318.860445,68.7436959 317.270399,71.2082675 316.104348,74.0173913 C314.938296,76.8265151 314.249276,79.8211021 314.037267,83.0012422 L361.262112,83.0012422 C361.050102,79.8211021 360.334582,76.8000143 359.115528,73.9378882 C357.896474,71.0757621 356.253426,68.6111905 354.186335,66.5440994 C352.119244,64.4770083 349.681173,62.8339605 346.87205,61.6149068 C344.062926,60.3958531 340.962336,59.7863354 337.570186,59.7863354 Z" id="Combined-Shape"></path>
            </g>
        </g>
    </g>
</svg>